<svg id="Capa_1" enable-background="new 0 0 510 510" height="512" viewBox="0 0 510 510" width="512" xmlns="http://www.w3.org/2000/svg" xmlns:xlink="http://www.w3.org/1999/xlink"><linearGradient id="lg1"><stop offset="0" stop-color="#ffd945"/><stop offset=".3043" stop-color="#ffcd3e"/><stop offset=".8558" stop-color="#ffad2b"/><stop offset="1" stop-color="#ffa325"/></linearGradient><linearGradient id="SVGID_1_" gradientUnits="userSpaceOnUse" x1="175.937" x2="336.544" xlink:href="#lg1" y1="145.578" y2="306.185"/><linearGradient id="lg2"><stop offset="0" stop-color="#e87264" stop-opacity="0"/><stop offset=".6519" stop-color="#f67150" stop-opacity=".652"/><stop offset="1" stop-color="#ff7044"/></linearGradient><linearGradient id="SVGID_2_" gradientUnits="userSpaceOnUse" x1="271.894" x2="370.014" xlink:href="#lg2" y1="324.834" y2="385.939"/><linearGradient id="SVGID_3_" gradientUnits="userSpaceOnUse" x1="314.555" x2="202.735" xlink:href="#lg2" y1="340.257" y2="257.798"/><linearGradient id="SVGID_4_" gradientUnits="userSpaceOnUse" x1="125.036" x2="89.71" xlink:href="#lg1" y1="195.231" y2="280.334"/><linearGradient id="SVGID_5_" gradientUnits="userSpaceOnUse" x1="373.864" x2="415.836" xlink:href="#lg1" y1="197.605" y2="239.576"/><linearGradient id="SVGID_6_" gradientUnits="userSpaceOnUse" x1="404.892" x2="518.661" xlink:href="#lg2" y1="222.19" y2="196.814"/><linearGradient id="SVGID_7_" gradientUnits="userSpaceOnUse" x1="135.966" x2="192.38" xlink:href="#lg1" y1="115.999" y2="172.412"/><linearGradient id="SVGID_8_" gradientUnits="userSpaceOnUse" x1="177.67" x2="330.585" xlink:href="#lg2" y1="149.044" y2="114.937"/><linearGradient id="SVGID_9_" gradientUnits="userSpaceOnUse" x1="318.492" x2="374.905" xlink:href="#lg1" y1="115.999" y2="172.412"/><linearGradient id="SVGID_10_" gradientUnits="userSpaceOnUse" x1="360.196" x2="513.11" xlink:href="#lg2" y1="149.044" y2="114.937"/><linearGradient id="SVGID_11_" gradientUnits="userSpaceOnUse" x1="212.191" x2="299.152" xlink:href="#lg1" y1="59.406" y2="146.367"/><linearGradient id="SVGID_12_" gradientUnits="userSpaceOnUse" x1="276.478" x2="512.196" xlink:href="#lg2" y1="110.345" y2="57.768"/><linearGradient id="SVGID_13_" gradientUnits="userSpaceOnUse" x1="276.104" x2="323.247" xlink:href="#lg1" y1="195.059" y2="242.202"/><linearGradient id="SVGID_14_" gradientUnits="userSpaceOnUse" x1="310.955" x2="438.741" xlink:href="#lg2" y1="222.674" y2="194.171"/><linearGradient id="SVGID_15_" gradientUnits="userSpaceOnUse" x1="209.878" x2="213.446" xlink:href="#lg1" y1="200.1" y2="280.029"/><linearGradient id="SVGID_16_" gradientUnits="userSpaceOnUse" x1="260.627" x2="253.491" xlink:href="#lg2" y1="435.177" y2="367.023"/><linearGradient id="SVGID_17_" gradientUnits="userSpaceOnUse" x1="190.932" x2="319.069" xlink:href="#lg1" y1="285.825" y2="413.962"/><linearGradient id="SVGID_18_" gradientUnits="userSpaceOnUse" x1="153.211" x2="193.451" xlink:href="#lg1" y1="476.938" y2="517.177"/><linearGradient id="SVGID_19_" gradientUnits="userSpaceOnUse" x1="227.73" x2="284.833" xlink:href="#lg1" y1="465.604" y2="522.707"/><linearGradient id="SVGID_20_" gradientUnits="userSpaceOnUse" x1="326.471" x2="356.794" xlink:href="#lg1" y1="483.91" y2="514.232"/><linearGradient id="SVGID_21_" gradientUnits="userSpaceOnUse" x1="98" x2="129.202" xlink:href="#lg1" y1="427.333" y2="458.535"/><linearGradient id="SVGID_22_" gradientUnits="userSpaceOnUse" x1="342.057" x2="373.258" xlink:href="#lg1" y1="418.698" y2="449.9"/><linearGradient id="SVGID_23_" gradientUnits="userSpaceOnUse" x1="130.448" x2="152.795" xlink:href="#lg1" y1="390.993" y2="413.341"/><linearGradient id="SVGID_24_" gradientUnits="userSpaceOnUse" x1="318.385" x2="336.5" xlink:href="#lg1" y1="392.712" y2="410.827"/><linearGradient id="SVGID_25_" gradientUnits="userSpaceOnUse" x1="379.258" x2="397.373" xlink:href="#lg1" y1="306.14" y2="324.255"/><g><g><path d="m406.94 170.51c3.611-8.181 5.631-17.222 5.631-26.74 0-33.894-25.437-61.829-58.258-65.805-10.888-44.744-51.218-77.965-99.313-77.965s-88.425 33.221-99.313 77.965c-32.822 3.975-58.258 31.91-58.258 65.805 0 9.517 2.02 18.558 5.631 26.74-22.23 5.762-38.374 26.634-36.815 51.001 1.559 24.364 21.157 44.164 45.505 45.952 10.494.77 20.354-1.745 28.66-6.624 11.606-6.817 26.151-6.479 36.887 1.639.376.285.757.565 1.141.84 7.045 5.051 11.929 12.566 13.303 21.124l19.105 163.017h88.31l19.104-163.017c1.375-8.559 6.259-16.074 13.303-21.125.384-.275.764-.555 1.14-.84 10.736-8.119 25.281-8.456 36.887-1.64 8.306 4.878 18.166 7.394 28.66 6.624 24.348-1.788 43.946-21.588 45.505-45.952 1.559-24.366-14.585-45.237-36.815-50.999z" fill="url(#SVGID_1_)"/><path d="m299.155 447.46h-88.31l-29.528-247.905h147.366z" fill="url(#SVGID_2_)"/><path d="m299.155 447.46h-44.155v-247.905h73.683z" fill="url(#SVGID_3_)"/><g><g><g><circle cx="115.474" cy="218.266" fill="url(#SVGID_4_)" r="49.334"/></g><g><circle cx="394.526" cy="218.266" fill="url(#SVGID_5_)" r="49.334"/><path d="m418.103 174.923c3.819 7.005 5.99 15.038 5.99 23.578 0 27.246-22.087 49.334-49.334 49.334-8.54 0-16.573-2.171-23.578-5.99 8.364 15.344 24.637 25.756 43.343 25.756 27.246 0 49.334-22.087 49.334-49.334.001-18.707-10.411-34.98-25.755-43.344z" fill="url(#SVGID_6_)"/></g></g><g><g><circle cx="163.737" cy="143.77" fill="url(#SVGID_7_)" r="66.308"/><path d="m195.428 85.513c5.133 9.416 8.051 20.212 8.051 31.69 0 36.621-29.687 66.309-66.309 66.309-11.479 0-22.275-2.919-31.69-8.051 11.242 20.623 33.115 34.618 58.257 34.618 36.621 0 66.309-29.687 66.309-66.309 0-25.142-13.995-47.015-34.618-58.257z" fill="url(#SVGID_8_)"/></g><g><circle cx="346.263" cy="143.77" fill="url(#SVGID_9_)" r="66.308"/><path d="m377.953 85.513c5.133 9.416 8.051 20.212 8.051 31.69 0 36.621-29.687 66.309-66.309 66.309-11.479 0-22.275-2.919-31.69-8.051 11.242 20.623 33.115 34.618 58.257 34.618 36.621 0 66.309-29.687 66.309-66.309 0-25.142-13.994-47.015-34.618-58.257z" fill="url(#SVGID_10_)"/></g></g><g><circle cx="255" cy="102.215" fill="url(#SVGID_11_)" r="102.215"/><path d="m303.851 12.411c7.912 14.514 12.411 31.156 12.411 48.851 0 56.452-45.763 102.215-102.215 102.215-17.694 0-34.337-4.499-48.851-12.411 17.33 31.791 51.046 53.364 89.803 53.364 56.452 0 102.215-45.763 102.215-102.215.001-38.757-21.572-72.474-53.363-89.804z" fill="url(#SVGID_12_)"/></g><g><g><circle cx="299.311" cy="218.266" fill="url(#SVGID_13_)" r="55.412"/><path d="m325.794 169.582c4.289 7.868 6.728 16.89 6.728 26.483 0 30.603-24.809 55.412-55.412 55.412-9.592 0-18.614-2.439-26.483-6.728 9.395 17.234 27.673 28.929 48.684 28.929 30.603 0 55.412-24.809 55.412-55.412 0-21.011-11.695-39.289-28.929-48.684z" fill="url(#SVGID_14_)"/></g><g><circle cx="210.689" cy="218.266" fill="url(#SVGID_15_)" r="55.412"/></g></g></g><path d="m299.155 447.46 7.862-66.009c-.001 0-.002 0-.002 0-15.983 1.873-33.689 2.858-52.015 2.858s-36.032-.985-52.015-2.858l66.009 66.009z" fill="url(#SVGID_16_)"/><path d="m337.234 323.409c-.569-.133-3.074-.742-5.595-1.352-3.405-.824-6.953.637-8.79 3.62-2.9 4.711-.314 10.877 5.076 12.12.79.182 1.397.32 1.708.384 11.122 2.335 18.338 4.771 22.992 6.849 4.206 1.878 4.207 7.845.001 9.723-4.652 2.078-11.866 4.514-22.982 6.849-6.348 1.327-13.285 2.473-20.671 3.426-16.357 2.098-34.876 3.222-53.973 3.222s-37.617-1.124-53.973-3.222c-7.386-.953-14.323-2.098-20.671-3.426-11.114-2.335-18.327-4.77-22.979-6.848-4.219-1.884-4.189-7.854.031-9.736 3.12-1.391 7.389-2.942 13.207-4.515 4.935-1.338 7.408-6.872 5.063-11.433-1.392-2.719-4.186-4.357-7.14-4.357-.696 0-1.392.096-2.087.278-22.33 6.048-33.206 14.216-33.206 24.899 0 11.647 12.921 20.307 39.522 26.473 9.003 2.087 19.204 3.789 30.219 5.085 15.982 1.873 33.688 2.858 52.015 2.858s36.032-.985 52.014-2.858c11.015-1.295 21.217-2.997 30.22-5.085 26.601-6.166 39.522-14.826 39.522-26.473-.001-11.644-12.922-20.304-39.523-26.481z" fill="url(#SVGID_17_)"/><g><path d="m226.656 510h-99.488c-6.513 0-11.396-6.042-9.946-12.391 5.628-24.638 27.678-43.021 54.021-43.021 30.604 0 55.413 24.809 55.413 55.412z" fill="url(#SVGID_18_)"/><path d="m334.475 510h-157.27c0-43.429 35.206-78.635 78.635-78.635s78.635 35.206 78.635 78.635z" fill="url(#SVGID_19_)"/><path d="m376.422 510h-78.01c0-24.775 20.084-44.858 44.858-44.858 20.177 0 37.243 13.322 42.882 31.649 2.019 6.56-2.867 13.209-9.73 13.209z" fill="url(#SVGID_20_)"/></g></g><circle cx="110.667" cy="440" fill="url(#SVGID_21_)" r="22"/><circle cx="354.723" cy="431.365" fill="url(#SVGID_22_)" r="22"/><circle cx="139.52" cy="400.066" fill="url(#SVGID_23_)" r="15.757"/><circle cx="325.739" cy="400.066" fill="url(#SVGID_24_)" r="12.773"/><circle cx="386.612" cy="313.494" fill="url(#SVGID_25_)" r="12.773"/></g></svg>